<svg xmlns="http://www.w3.org/2000/svg" xmlns:xlink="http://www.w3.org/1999/xlink" width="500" zoomAndPan="magnify" viewBox="0 0 375 374.999991" height="500" preserveAspectRatio="xMidYMid meet" version="1.0"><defs><clipPath id="2983b3cc4c"><path d="M 187.753906 126.65625 L 336.296875 126.65625 L 336.296875 280.910156 L 187.753906 280.910156 Z M 187.753906 126.65625 " clip-rule="nonzero"/></clipPath><clipPath id="5f11995093"><path d="M 188.117188 246.808594 C 204.078125 225.300781 223.328125 213.839844 261.089844 214.25 C 276.597656 214.417969 287.667969 202.503906 287.828125 187.8125 L 287.832031 187.597656 L 289.261719 187.488281 L 287.832031 187.488281 C 287.832031 183.78125 287.070312 180.25 285.699219 177.03125 C 285.390625 176.304688 285.730469 175.464844 286.453125 175.15625 C 287.179688 174.847656 288.019531 175.183594 288.328125 175.910156 C 289.847656 179.472656 290.6875 183.386719 290.6875 187.488281 L 290.6875 187.839844 C 290.511719 204.007812 278.242188 217.289062 261.058594 217.105469 L 261.074219 215.675781 L 261.058594 217.105469 C 224.152344 216.703125 205.792969 227.789062 190.414062 248.511719 C 189.941406 249.144531 189.050781 249.277344 188.417969 248.808594 C 187.785156 248.339844 187.652344 247.441406 188.121094 246.808594 Z M 193.015625 254.140625 C 208.992188 229.039062 237.558594 221.484375 261.097656 221.902344 L 261.070312 223.332031 L 261.097656 221.902344 C 279.84375 222.230469 295.125 206.855469 295.457031 188.109375 L 295.460938 187.488281 L 296.890625 187.488281 L 295.460938 187.488281 C 295.460938 180.613281 293.441406 174.203125 289.960938 168.828125 C 289.53125 168.164062 289.71875 167.28125 290.382812 166.851562 C 291.046875 166.425781 291.929688 166.613281 292.359375 167.273438 C 296.128906 173.101562 298.320312 180.046875 298.320312 187.492188 L 298.3125 188.160156 C 297.957031 208.414062 281.441406 225.121094 261.046875 224.757812 C 238.015625 224.351562 210.652344 231.757812 195.425781 255.679688 C 195.003906 256.34375 194.121094 256.542969 193.457031 256.117188 C 192.789062 255.691406 192.59375 254.8125 193.019531 254.144531 Z M 198.617188 263.148438 C 206.5 249.601562 224.371094 229.410156 261.15625 231.617188 L 261.070312 233.042969 L 261.15625 231.617188 C 284.429688 233.011719 303.699219 213.488281 305.097656 190.1875 L 305.175781 187.488281 L 306.605469 187.488281 L 305.175781 187.488281 C 305.175781 176.890625 301.445312 167.167969 295.210938 159.558594 C 294.710938 158.949219 294.796875 158.046875 295.410156 157.546875 C 296.019531 157.046875 296.921875 157.136719 297.421875 157.75 C 304.058594 165.847656 308.035156 176.203125 308.035156 187.484375 L 307.949219 190.355469 C 306.472656 215.003906 286.058594 235.96875 260.984375 234.464844 C 225.605469 232.347656 208.613281 251.640625 201.085938 264.582031 C 200.691406 265.265625 199.816406 265.496094 199.132812 265.097656 C 198.449219 264.699219 198.21875 263.828125 198.617188 263.144531 Z M 206.980469 273.796875 C 215.328125 258.390625 229.84375 243.652344 261.085938 243.945312 C 293.851562 244.253906 317.230469 219.03125 317.523438 188.074219 L 317.527344 187.488281 L 318.957031 187.488281 L 317.527344 187.488281 C 317.527344 171.644531 311.003906 157.339844 300.480469 147.078125 C 299.914062 146.527344 299.90625 145.625 300.457031 145.058594 C 301.007812 144.492188 301.910156 144.480469 302.476562 145.03125 C 313.527344 155.8125 320.382812 170.839844 320.382812 187.488281 L 320.382812 188.101562 C 320.074219 220.542969 295.496094 247.125 261.058594 246.800781 L 261.070312 245.371094 L 261.058594 246.800781 C 231.058594 246.519531 217.429688 260.503906 209.492188 275.15625 C 209.121094 275.851562 208.25 276.109375 207.558594 275.734375 C 206.863281 275.359375 206.605469 274.492188 206.980469 273.796875 Z M 305.386719 126.980469 C 323.992188 140.628906 336.070312 162.652344 336.070312 187.488281 L 334.644531 187.488281 L 336.070312 187.488281 C 336.070312 215.25 320.988281 239.496094 298.585938 252.476562 L 298.582031 252.476562 C 287.515625 258.867188 274.707031 261.953125 261.128906 262.507812 C 245.136719 263.164062 233.957031 267.949219 227.601562 280.058594 C 227.234375 280.757812 226.371094 281.027344 225.671875 280.65625 C 224.976562 280.289062 224.703125 279.425781 225.074219 278.726562 C 232.089844 265.355469 244.488281 260.328125 261.015625 259.652344 L 261.070312 261.082031 L 261.015625 259.652344 C 274.242188 259.109375 286.578125 256.109375 297.15625 250 L 297.871094 251.238281 L 297.152344 250 C 318.710938 237.511719 333.21875 214.1875 333.21875 187.484375 C 333.21875 163.59375 321.605469 142.414062 303.699219 129.277344 C 303.0625 128.8125 302.925781 127.917969 303.394531 127.28125 C 303.863281 126.640625 304.753906 126.503906 305.390625 126.972656 Z M 305.386719 126.980469 " clip-rule="nonzero"/></clipPath><clipPath id="c1af2351aa"><path d="M 193 48.671875 L 299.445312 48.671875 L 299.445312 217.492188 L 193 217.492188 Z M 193 48.671875 " clip-rule="nonzero"/></clipPath><clipPath id="4c2ead07ee"><path d="M 239.171875 216.621094 C 228.523438 192.042969 228.226562 169.636719 247.457031 137.144531 L 248.6875 137.875 L 247.457031 137.144531 C 255.359375 123.800781 250.574219 108.25 237.933594 100.769531 L 237.75 100.660156 L 238.367188 99.367188 L 237.65625 100.605469 C 234.445312 98.753906 231.003906 97.644531 227.535156 97.222656 C 226.75 97.128906 226.191406 96.414062 226.289062 95.628906 C 226.382812 94.847656 227.097656 94.289062 227.878906 94.382812 C 231.71875 94.851562 235.535156 96.078125 239.085938 98.128906 L 239.390625 98.304688 C 253.300781 106.539062 258.671875 123.808594 249.914062 138.59375 C 231.113281 170.355469 231.535156 191.796875 241.792969 215.476562 C 242.105469 216.199219 241.773438 217.042969 241.050781 217.359375 C 240.328125 217.671875 239.484375 217.339844 239.167969 216.617188 Z M 247.972656 216.046875 C 234.21875 189.65625 241.964844 161.140625 254.089844 140.964844 C 263.75 124.894531 258.078125 103.972656 242.007812 94.316406 L 241.472656 94 L 242.1875 92.765625 L 241.472656 94 C 235.515625 90.5625 228.957031 89.105469 222.558594 89.433594 C 221.769531 89.476562 221.097656 88.871094 221.058594 88.082031 C 221.019531 87.292969 221.625 86.621094 222.414062 86.582031 C 229.34375 86.226562 236.453125 87.804688 242.902344 91.527344 L 243.476562 91.867188 C 260.839844 102.300781 267.050781 124.957031 256.539062 142.441406 L 255.3125 141.703125 L 256.539062 142.441406 C 244.671875 162.183594 237.398438 189.582031 250.507812 214.730469 C 250.875 215.429688 250.601562 216.292969 249.902344 216.65625 C 249.203125 217.019531 248.339844 216.75 247.976562 216.050781 Z M 258.574219 215.699219 C 250.78125 202.101562 242.230469 176.527344 262.539062 145.773438 L 263.730469 146.558594 L 262.539062 145.773438 C 275.382812 126.316406 268.109375 99.867188 248.628906 87.007812 L 246.332031 85.585938 L 247.046875 84.347656 L 246.332031 85.585938 C 237.15625 80.285156 226.871094 78.65625 217.164062 80.25 C 216.386719 80.378906 215.648438 79.851562 215.523438 79.074219 C 215.398438 78.296875 215.921875 77.558594 216.699219 77.433594 C 227.035156 75.734375 237.992188 77.472656 247.761719 83.113281 L 250.203125 84.621094 C 270.808594 98.222656 278.757812 126.386719 264.921875 147.347656 C 245.394531 176.925781 253.609375 201.289062 261.054688 214.277344 C 261.445312 214.964844 261.207031 215.835938 260.527344 216.226562 C 259.84375 216.617188 258.96875 216.382812 258.578125 215.699219 Z M 271.976562 213.777344 C 262.804688 198.847656 257.300781 178.90625 273.175781 152 C 289.828125 123.777344 279.671875 90.917969 253.011719 75.1875 L 252.503906 74.894531 L 253.21875 73.65625 L 252.503906 74.894531 C 238.78125 66.964844 223.132812 65.464844 208.984375 69.445312 C 208.222656 69.660156 207.433594 69.21875 207.21875 68.457031 C 207.003906 67.699219 207.449219 66.910156 208.207031 66.695312 C 223.066406 62.515625 239.515625 64.09375 253.929688 72.414062 L 254.460938 72.722656 C 282.402344 89.210938 293.136719 123.789062 275.632812 153.449219 L 274.402344 152.726562 L 275.632812 153.449219 C 260.390625 179.289062 265.683594 198.085938 274.40625 212.285156 C 274.820312 212.953125 274.609375 213.835938 273.9375 214.25 C 273.265625 214.664062 272.386719 214.453125 271.972656 213.78125 Z M 194.03125 55.148438 C 215.15625 45.859375 240.265625 46.410156 261.777344 58.828125 C 285.820312 72.710938 299.277344 97.894531 299.3125 123.789062 C 299.316406 136.566406 295.582031 149.203125 289.273438 161.242188 C 281.847656 175.417969 280.398438 187.492188 287.707031 199.050781 C 288.132812 199.714844 287.933594 200.597656 287.265625 201.023438 C 286.601562 201.445312 285.71875 201.246094 285.292969 200.578125 C 277.222656 187.816406 279.066406 174.566406 286.742188 159.917969 L 288.007812 160.582031 L 286.742188 159.917969 C 292.886719 148.191406 296.457031 136.007812 296.457031 123.792969 L 297.882812 123.792969 L 296.457031 123.796875 C 296.417969 98.878906 283.472656 74.652344 260.347656 61.304688 L 261.0625 60.066406 L 260.347656 61.304688 C 239.660156 49.359375 215.507812 48.824219 195.179688 57.761719 C 194.457031 58.078125 193.613281 57.75 193.296875 57.03125 C 192.980469 56.3125 193.308594 55.464844 194.03125 55.148438 Z M 194.03125 55.148438 " clip-rule="nonzero"/></clipPath><clipPath id="9f7329fcbb"><path d="M 76.0625 48.671875 L 254 48.671875 L 254 157.507812 L 76.0625 157.507812 Z M 76.0625 48.671875 " clip-rule="nonzero"/></clipPath><clipPath id="8a9ada6cf4"><path d="M 238.554688 157.3125 C 211.941406 154.246094 192.390625 143.300781 173.871094 110.398438 L 175.117188 109.699219 L 173.871094 110.398438 C 166.261719 96.882812 150.40625 93.25 137.601562 100.457031 L 137.417969 100.5625 L 136.609375 99.378906 L 137.324219 100.617188 C 134.113281 102.46875 131.429688 104.898438 129.332031 107.691406 C 128.859375 108.324219 127.964844 108.449219 127.332031 107.972656 C 126.703125 107.5 126.574219 106.605469 127.050781 105.972656 C 129.375 102.878906 132.34375 100.191406 135.898438 98.140625 L 136.101562 98.023438 L 136.203125 97.96875 C 150.292969 90.035156 167.929688 94.019531 176.363281 108.996094 C 194.464844 141.15625 213.246094 151.515625 238.882812 154.472656 C 239.667969 154.5625 240.230469 155.269531 240.136719 156.054688 C 240.046875 156.835938 239.335938 157.398438 238.554688 157.308594 Z M 242.453125 149.402344 C 212.726562 148.117188 191.902344 127.152344 180.492188 106.5625 L 181.738281 105.871094 L 180.492188 106.5625 C 171.402344 90.160156 150.449219 84.613281 134.046875 93.703125 L 133.511719 94.011719 L 132.796875 92.773438 L 133.511719 94.011719 C 127.554688 97.449219 123.015625 102.402344 120.097656 108.105469 C 119.738281 108.808594 118.878906 109.085938 118.175781 108.730469 C 117.472656 108.371094 117.195312 107.507812 117.550781 106.804688 C 120.710938 100.625 125.636719 95.253906 132.082031 91.535156 L 132.664062 91.207031 C 150.382812 81.386719 173.105469 87.335938 182.992188 105.179688 C 194.15625 125.328125 214.25 145.324219 242.582031 146.550781 C 243.371094 146.585938 243.980469 147.25 243.945312 148.039062 C 243.914062 148.828125 243.246094 149.4375 242.457031 149.40625 Z M 247.453125 140.046875 C 231.78125 139.996094 205.359375 134.613281 188.878906 101.652344 C 178.449219 80.800781 151.910156 73.875 131.027344 84.316406 L 128.652344 85.59375 C 119.476562 90.894531 112.921875 98.984375 109.449219 108.1875 C 109.175781 108.925781 108.347656 109.300781 107.609375 109.019531 C 106.875 108.738281 106.5 107.917969 106.78125 107.179688 C 110.476562 97.382812 117.457031 88.761719 127.226562 83.121094 L 127.941406 84.355469 L 127.226562 83.121094 C 128.058594 82.640625 128.90625 82.1875 129.757812 81.761719 C 151.839844 70.714844 180.203125 77.910156 191.4375 100.375 L 190.160156 101.011719 L 191.4375 100.375 C 207.289062 132.074219 232.492188 137.140625 247.464844 137.1875 C 248.253906 137.191406 248.890625 137.832031 248.886719 138.625 C 248.882812 139.414062 248.246094 140.050781 247.453125 140.046875 Z M 252.492188 127.480469 C 234.972656 127.957031 214.953125 122.753906 199.585938 95.550781 L 200.832031 94.847656 L 199.585938 95.550781 C 183.472656 67.019531 149.941406 59.382812 122.988281 74.609375 L 122.476562 74.898438 L 121.765625 73.660156 L 122.476562 74.898438 C 108.757812 82.824219 99.628906 95.625 96.003906 109.867188 C 95.808594 110.632812 95.03125 111.089844 94.265625 110.898438 C 93.5 110.703125 93.039062 109.925781 93.234375 109.160156 C 97.042969 94.203125 106.632812 80.746094 121.050781 72.421875 L 121.582031 72.117188 C 149.828125 56.164062 185.140625 64.160156 202.078125 94.148438 C 216.832031 120.265625 235.757812 125.078125 252.417969 124.625 C 253.203125 124.601562 253.863281 125.226562 253.882812 126.011719 C 253.902344 126.800781 253.28125 127.460938 252.492188 127.480469 Z M 76.144531 115.667969 C 78.660156 92.730469 91.695312 71.257812 113.207031 58.839844 C 137.25 44.957031 165.789062 45.898438 188.230469 58.8125 C 199.296875 65.199219 208.375 74.75 215.644531 86.230469 C 224.207031 99.75 233.941406 107.042969 247.605469 106.488281 C 248.394531 106.457031 249.0625 107.070312 249.09375 107.855469 C 249.125 108.644531 248.511719 109.3125 247.722656 109.34375 C 232.632812 109.953125 222.082031 101.726562 213.234375 87.753906 L 214.441406 86.988281 L 213.234375 87.753906 C 206.152344 76.570312 197.382812 67.386719 186.804688 61.28125 L 187.519531 60.046875 L 186.808594 61.28125 C 165.214844 48.859375 137.761719 47.957031 114.636719 61.308594 L 113.921875 60.070312 L 114.636719 61.308594 C 93.949219 73.253906 81.410156 93.902344 78.988281 115.976562 C 78.902344 116.757812 78.195312 117.328125 77.410156 117.238281 C 76.625 117.148438 76.058594 116.445312 76.148438 115.660156 Z M 76.144531 115.667969 " clip-rule="nonzero"/></clipPath><clipPath id="dca191c02b"><path d="M 38.929688 94.089844 L 187.183594 94.089844 L 187.183594 248.34375 L 38.929688 248.34375 Z M 38.929688 94.089844 " clip-rule="nonzero"/></clipPath><clipPath id="c31bf12d2a"><path d="M 186.882812 128.191406 C 170.921875 149.703125 151.671875 161.164062 113.910156 160.75 C 98.402344 160.582031 87.332031 172.5 87.171875 187.1875 L 87.167969 187.402344 L 85.738281 187.511719 L 87.167969 187.511719 C 87.167969 191.21875 87.929688 194.753906 89.300781 197.96875 C 89.609375 198.695312 89.273438 199.535156 88.546875 199.84375 C 87.820312 200.152344 86.980469 199.816406 86.671875 199.089844 C 85.152344 195.53125 84.3125 191.613281 84.3125 187.511719 L 84.3125 187.160156 C 84.488281 170.992188 96.757812 157.710938 113.941406 157.898438 L 113.925781 159.324219 L 113.941406 157.898438 C 150.847656 158.296875 169.207031 147.214844 184.585938 126.492188 C 185.058594 125.855469 185.953125 125.726562 186.582031 126.195312 C 187.214844 126.664062 187.347656 127.558594 186.878906 128.191406 Z M 181.984375 120.859375 C 166.007812 145.960938 137.441406 153.515625 113.902344 153.097656 C 95.15625 152.769531 79.875 168.144531 79.542969 186.890625 L 79.539062 187.511719 L 78.109375 187.511719 L 79.539062 187.511719 C 79.539062 194.386719 81.558594 200.800781 85.039062 206.175781 C 85.46875 206.835938 85.28125 207.71875 84.617188 208.148438 C 83.953125 208.578125 83.070312 208.390625 82.640625 207.726562 C 78.871094 201.898438 76.683594 194.953125 76.683594 187.507812 L 76.6875 186.839844 C 77.042969 166.585938 93.558594 149.882812 113.953125 150.242188 L 113.929688 151.671875 L 113.953125 150.242188 C 136.984375 150.648438 164.347656 143.242188 179.574219 119.320312 C 179.996094 118.65625 180.878906 118.457031 181.546875 118.882812 C 182.210938 119.308594 182.40625 120.191406 181.980469 120.855469 Z M 176.382812 111.851562 C 168.5 125.398438 150.628906 145.589844 113.84375 143.382812 L 113.929688 141.957031 L 113.84375 143.382812 C 90.570312 141.988281 71.300781 161.511719 69.902344 184.816406 L 69.824219 187.511719 L 68.394531 187.511719 L 69.824219 187.511719 C 69.824219 198.109375 73.554688 207.832031 79.789062 215.441406 C 80.289062 216.050781 80.203125 216.953125 79.589844 217.453125 C 78.980469 217.953125 78.078125 217.863281 77.578125 217.253906 C 70.941406 209.152344 66.964844 198.796875 66.964844 187.515625 L 67.050781 184.644531 C 68.527344 159.996094 88.941406 139.03125 114.015625 140.535156 C 149.394531 142.660156 166.386719 123.359375 173.914062 110.421875 C 174.308594 109.738281 175.183594 109.507812 175.867188 109.902344 C 176.550781 110.300781 176.78125 111.175781 176.382812 111.859375 Z M 168.019531 101.203125 C 159.675781 116.613281 145.15625 131.347656 113.914062 131.058594 L 113.929688 129.628906 L 113.914062 131.058594 C 81.148438 130.75 57.769531 155.96875 57.476562 186.925781 L 57.472656 187.507812 L 56.046875 187.507812 L 57.472656 187.507812 C 57.472656 203.355469 63.996094 217.660156 74.519531 227.917969 C 75.085938 228.472656 75.097656 229.375 74.542969 229.941406 C 73.992188 230.503906 73.089844 230.515625 72.523438 229.964844 C 61.472656 219.191406 54.617188 204.15625 54.617188 187.507812 L 54.617188 186.898438 C 54.925781 154.457031 79.503906 127.875 113.941406 128.195312 C 143.941406 128.480469 157.570312 114.496094 165.507812 99.84375 C 165.878906 99.148438 166.75 98.890625 167.445312 99.265625 C 168.136719 99.640625 168.394531 100.507812 168.019531 101.203125 Z M 69.613281 248.023438 C 51.007812 234.367188 38.929688 212.347656 38.929688 187.507812 L 40.359375 187.507812 L 38.929688 187.507812 C 38.929688 159.75 54.011719 135.5 76.414062 122.523438 L 76.417969 122.523438 C 87.484375 116.132812 100.292969 113.046875 113.871094 112.488281 C 129.863281 111.835938 141.042969 107.046875 147.398438 94.941406 C 147.765625 94.242188 148.628906 93.972656 149.328125 94.339844 C 150.023438 94.710938 150.296875 95.574219 149.925781 96.269531 C 142.910156 109.644531 130.511719 114.667969 113.984375 115.347656 L 113.929688 113.917969 L 113.984375 115.347656 C 100.757812 115.890625 88.421875 118.890625 77.84375 125 L 77.128906 123.761719 L 77.847656 125 C 56.289062 137.484375 41.785156 160.808594 41.785156 187.507812 C 41.785156 211.398438 53.398438 232.578125 71.304688 245.714844 C 71.941406 246.179688 72.078125 247.074219 71.609375 247.714844 C 71.140625 248.351562 70.25 248.488281 69.613281 248.019531 Z M 69.613281 248.023438 " clip-rule="nonzero"/></clipPath><clipPath id="39f3833412"><path d="M 75.492188 157.507812 L 182 157.507812 L 182 326.328125 L 75.492188 326.328125 Z M 75.492188 157.507812 " clip-rule="nonzero"/></clipPath><clipPath id="9d0edd037a"><path d="M 135.828125 158.378906 C 146.476562 182.957031 146.777344 205.359375 127.542969 237.851562 L 126.3125 237.125 L 127.542969 237.851562 C 119.640625 251.199219 124.425781 266.746094 137.066406 274.230469 L 137.25 274.339844 L 136.632812 275.628906 L 137.347656 274.394531 C 140.554688 276.246094 143.996094 277.355469 147.46875 277.777344 C 148.253906 277.871094 148.808594 278.585938 148.714844 279.367188 C 148.621094 280.152344 147.90625 280.707031 147.125 280.613281 C 143.28125 280.144531 139.46875 278.917969 135.917969 276.867188 L 135.613281 276.691406 C 121.699219 268.457031 116.332031 251.1875 125.085938 236.402344 C 143.890625 204.640625 143.46875 183.195312 133.210938 159.515625 C 132.898438 158.792969 133.230469 157.953125 133.953125 157.636719 C 134.675781 157.324219 135.519531 157.65625 135.835938 158.378906 Z M 127.027344 158.953125 C 140.78125 185.339844 133.035156 213.859375 120.910156 234.035156 C 111.25 250.105469 116.921875 271.027344 132.992188 280.6875 L 133.527344 281 C 139.484375 284.4375 146.042969 285.890625 152.441406 285.566406 C 153.230469 285.527344 153.902344 286.132812 153.941406 286.921875 C 153.980469 287.710938 153.375 288.378906 152.585938 288.421875 C 145.65625 288.773438 138.546875 287.195312 132.097656 283.472656 L 132.8125 282.238281 L 132.097656 283.472656 C 131.90625 283.363281 131.714844 283.25 131.523438 283.132812 C 114.160156 272.699219 107.949219 250.042969 118.460938 232.558594 L 119.6875 233.296875 L 118.460938 232.558594 C 130.328125 212.816406 137.601562 185.417969 124.492188 160.273438 C 124.128906 159.570312 124.398438 158.707031 125.097656 158.347656 C 125.796875 157.984375 126.660156 158.25 127.023438 158.953125 Z M 116.425781 159.300781 C 124.21875 172.898438 132.769531 198.46875 112.464844 229.226562 C 99.617188 248.683594 106.890625 275.128906 126.375 287.992188 L 128.671875 289.414062 L 127.957031 290.648438 L 128.671875 289.414062 C 137.847656 294.714844 148.132812 296.339844 157.839844 294.746094 C 158.617188 294.617188 159.355469 295.144531 159.480469 295.921875 C 159.605469 296.699219 159.078125 297.4375 158.300781 297.5625 C 147.96875 299.257812 137.011719 297.523438 127.242188 291.882812 L 124.800781 290.375 C 104.195312 276.777344 96.242188 248.617188 110.078125 227.652344 L 111.269531 228.441406 L 110.078125 227.652344 C 129.609375 198.074219 121.390625 173.710938 113.949219 160.722656 C 113.558594 160.039062 113.792969 159.164062 114.476562 158.773438 C 115.160156 158.382812 116.035156 158.621094 116.425781 159.304688 Z M 103.023438 161.21875 C 112.195312 176.152344 117.699219 196.089844 101.824219 223 C 85.175781 251.222656 95.328125 284.082031 121.988281 299.8125 L 122.496094 300.105469 C 136.21875 308.027344 151.867188 309.527344 166.015625 305.546875 C 166.773438 305.335938 167.5625 305.777344 167.777344 306.539062 C 167.992188 307.296875 167.550781 308.085938 166.789062 308.300781 C 151.929688 312.480469 135.484375 310.902344 121.066406 302.578125 L 121.78125 301.34375 L 121.066406 302.578125 C 120.890625 302.476562 120.710938 302.375 120.539062 302.269531 C 92.59375 285.785156 81.863281 251.207031 99.363281 221.542969 L 100.597656 222.269531 L 99.363281 221.550781 C 114.605469 195.714844 109.3125 176.917969 100.589844 162.71875 C 100.175781 162.046875 100.386719 161.167969 101.058594 160.75 C 101.730469 160.335938 102.609375 160.550781 103.023438 161.21875 Z M 180.972656 319.851562 C 159.84375 329.144531 134.734375 328.589844 113.222656 316.171875 C 89.179688 302.289062 75.722656 277.105469 75.6875 251.214844 L 75.6875 251.210938 C 75.683594 238.433594 79.417969 225.796875 85.726562 213.761719 C 93.152344 199.585938 94.601562 187.507812 87.292969 175.949219 C 86.867188 175.285156 87.070312 174.402344 87.734375 173.980469 C 88.398438 173.554688 89.28125 173.757812 89.707031 174.421875 C 97.777344 187.1875 95.933594 200.4375 88.257812 215.082031 L 86.992188 214.421875 L 88.257812 215.082031 C 82.113281 226.8125 78.542969 238.996094 78.542969 251.207031 L 77.117188 251.207031 L 78.542969 251.203125 C 78.582031 276.121094 91.527344 300.34375 114.652344 313.691406 L 113.9375 314.929688 L 114.652344 313.691406 C 135.339844 325.636719 159.492188 326.171875 179.820312 317.234375 C 180.542969 316.914062 181.386719 317.242188 181.703125 317.964844 C 182.019531 318.683594 181.691406 319.53125 180.972656 319.847656 Z M 180.972656 319.851562 " clip-rule="nonzero"/></clipPath><clipPath id="ad90c1307a"><path d="M 121 217.492188 L 298.875 217.492188 L 298.875 326.328125 L 121 326.328125 Z M 121 217.492188 " clip-rule="nonzero"/></clipPath><clipPath id="28d5d49913"><path d="M 136.441406 217.691406 C 163.054688 220.753906 182.605469 231.699219 201.128906 264.605469 L 199.882812 265.304688 L 201.128906 264.605469 C 208.734375 278.121094 224.59375 281.75 237.394531 274.542969 L 237.582031 274.4375 L 238.390625 275.621094 L 237.675781 274.386719 C 240.882812 272.535156 243.566406 270.105469 245.667969 267.308594 C 246.140625 266.679688 247.035156 266.550781 247.667969 267.027344 C 248.296875 267.5 248.425781 268.394531 247.949219 269.027344 C 245.625 272.121094 242.65625 274.8125 239.101562 276.859375 L 238.796875 277.035156 C 224.707031 284.964844 207.070312 280.980469 198.636719 266.007812 C 180.535156 233.84375 161.753906 223.484375 136.117188 220.53125 C 135.335938 220.4375 134.769531 219.730469 134.863281 218.945312 C 134.953125 218.164062 135.664062 217.601562 136.445312 217.691406 Z M 132.542969 225.597656 C 162.273438 226.882812 183.097656 247.847656 194.507812 268.4375 L 193.257812 269.128906 L 194.507812 268.4375 C 203.597656 284.839844 224.550781 290.386719 240.953125 281.296875 L 241.492188 280.992188 C 247.445312 277.554688 251.988281 272.597656 254.90625 266.894531 C 255.265625 266.191406 256.125 265.914062 256.828125 266.273438 C 257.53125 266.628906 257.808594 267.492188 257.449219 268.195312 C 254.289062 274.375 249.367188 279.742188 242.921875 283.464844 L 242.210938 282.230469 L 242.921875 283.464844 C 242.730469 283.578125 242.535156 283.6875 242.339844 283.792969 C 224.621094 293.613281 201.898438 287.664062 192.011719 269.820312 C 180.847656 249.671875 160.753906 229.675781 132.425781 228.453125 C 131.636719 228.417969 131.023438 227.753906 131.058594 226.964844 C 131.09375 226.175781 131.757812 225.566406 132.546875 225.597656 Z M 127.542969 234.953125 C 143.214844 235.003906 169.636719 240.382812 186.121094 273.34375 L 184.84375 273.984375 L 186.121094 273.34375 C 196.546875 294.199219 223.089844 301.121094 243.96875 290.679688 L 246.347656 289.402344 C 255.523438 284.101562 262.082031 276.011719 265.550781 266.808594 C 265.828125 266.070312 266.652344 265.695312 267.390625 265.976562 C 268.125 266.253906 268.5 267.078125 268.222656 267.816406 C 264.523438 277.613281 257.542969 286.234375 247.773438 291.875 L 247.058594 290.636719 L 247.773438 291.875 C 246.941406 292.355469 246.097656 292.808594 245.242188 293.234375 C 223.160156 304.28125 194.796875 297.085938 183.5625 274.621094 C 167.710938 242.925781 142.507812 237.859375 127.535156 237.808594 C 126.746094 237.804688 126.109375 237.167969 126.113281 236.375 C 126.117188 235.582031 126.757812 234.949219 127.546875 234.953125 Z M 122.507812 247.519531 C 140.023438 247.042969 160.042969 252.246094 175.410156 279.449219 C 191.527344 307.980469 225.058594 315.617188 252.015625 300.390625 L 252.523438 300.101562 L 253.238281 301.339844 L 252.523438 300.101562 C 266.246094 292.179688 275.375 279.375 279 265.136719 C 279.195312 264.371094 279.972656 263.910156 280.738281 264.105469 C 281.503906 264.296875 281.960938 265.074219 281.769531 265.839844 C 277.960938 280.800781 268.371094 294.253906 253.953125 302.578125 L 253.421875 302.882812 C 225.175781 318.839844 189.863281 310.84375 172.925781 280.855469 L 174.167969 280.152344 L 172.925781 280.855469 C 158.171875 254.738281 139.246094 249.925781 122.585938 250.378906 C 121.796875 250.402344 121.140625 249.777344 121.121094 248.992188 C 121.101562 248.203125 121.722656 247.542969 122.511719 247.523438 Z M 298.855469 259.332031 C 296.339844 282.269531 283.304688 303.742188 261.792969 316.160156 L 261.078125 314.925781 L 261.792969 316.160156 C 237.75 330.042969 209.210938 329.101562 186.769531 316.191406 C 175.703125 309.804688 166.625 300.25 159.355469 288.773438 L 160.558594 288.007812 L 159.355469 288.773438 C 150.792969 275.253906 141.058594 267.957031 127.394531 268.511719 C 126.605469 268.542969 125.9375 267.933594 125.90625 267.144531 C 125.875 266.355469 126.488281 265.691406 127.277344 265.65625 C 142.367188 265.050781 152.917969 273.273438 161.765625 287.242188 C 168.847656 298.425781 177.617188 307.613281 188.195312 313.714844 L 187.480469 314.953125 L 188.191406 313.714844 C 209.785156 326.140625 237.238281 327.039062 260.363281 313.6875 C 281.050781 301.746094 293.589844 281.097656 296.011719 259.023438 C 296.097656 258.238281 296.804688 257.671875 297.589844 257.761719 C 298.375 257.847656 298.941406 258.550781 298.851562 259.335938 Z M 298.855469 259.332031 " clip-rule="nonzero"/></clipPath></defs><g clip-path="url(#2983b3cc4c)"><g clip-path="url(#5f11995093)"><path fill="#ffffff" d="M 37.5 43.53125 L 337.4375 43.53125 L 337.4375 331.46875 L 37.5 331.46875 Z M 37.5 43.53125 " fill-opacity="1" fill-rule="nonzero"/></g></g><g clip-path="url(#c1af2351aa)"><g clip-path="url(#4c2ead07ee)"><path fill="#ffffff" d="M 37.5 43.53125 L 337.4375 43.53125 L 337.4375 331.46875 L 37.5 331.46875 Z M 37.5 43.53125 " fill-opacity="1" fill-rule="nonzero"/></g></g><g clip-path="url(#9f7329fcbb)"><g clip-path="url(#8a9ada6cf4)"><path fill="#ffffff" d="M 37.5 43.53125 L 337.4375 43.53125 L 337.4375 331.46875 L 37.5 331.46875 Z M 37.5 43.53125 " fill-opacity="1" fill-rule="nonzero"/></g></g><g clip-path="url(#dca191c02b)"><g clip-path="url(#c31bf12d2a)"><path fill="#ffffff" d="M 37.5 43.53125 L 337.4375 43.53125 L 337.4375 331.46875 L 37.5 331.46875 Z M 37.5 43.53125 " fill-opacity="1" fill-rule="nonzero"/></g></g><g clip-path="url(#39f3833412)"><g clip-path="url(#9d0edd037a)"><path fill="#ffffff" d="M 37.5 43.53125 L 337.4375 43.53125 L 337.4375 331.46875 L 37.5 331.46875 Z M 37.5 43.53125 " fill-opacity="1" fill-rule="nonzero"/></g></g><g clip-path="url(#ad90c1307a)"><g clip-path="url(#28d5d49913)"><path fill="#ffffff" d="M 37.5 43.53125 L 337.4375 43.53125 L 337.4375 331.46875 L 37.5 331.46875 Z M 37.5 43.53125 " fill-opacity="1" fill-rule="nonzero"/></g></g></svg>